<?xml version="1.0" standalone="no"?>
<!DOCTYPE svg PUBLIC "-//W3C//DTD SVG 20010904//EN"
 "http://www.w3.org/TR/2001/REC-SVG-20010904/DTD/svg10.dtd">
<svg version="1.0" xmlns="http://www.w3.org/2000/svg"
 width="1080.000000pt" height="1080.000000pt" viewBox="0 0 1080.000000 1080.000000"
 preserveAspectRatio="xMidYMid meet">
<metadata>
Created by potrace 1.14, written by Peter Selinger 2001-2017
</metadata>
<g transform="translate(0.000000,1080.000000) scale(0.100000,-0.100000)"
fill="#000000" stroke="none">
<path d="M3860 10679 c-152 -53 -348 -166 -473 -273 -75 -64 -287 -280 -287
-292 0 -6 -7 -18 -16 -25 -19 -16 -143 -200 -164 -244 -8 -16 -20 -37 -26 -45
-7 -8 -13 -17 -13 -20 0 -3 -14 -36 -31 -75 -18 -38 -34 -79 -36 -89 -2 -10
-8 -33 -13 -50 -30 -94 -33 -236 -8 -359 10 -50 22 -96 28 -101 20 -21 9 -44
-23 -51 -18 -4 -54 -20 -81 -36 -26 -16 -50 -29 -53 -29 -6 0 -30 -20 -52 -42
-9 -10 -21 -18 -26 -18 -6 0 -19 -9 -31 -20 -11 -11 -42 -40 -68 -65 -26 -25
-46 -45 -43 -45 3 0 -11 -15 -29 -34 -19 -18 -35 -36 -35 -40 0 -4 -5 -12 -10
-19 -39 -46 -49 -61 -60 -87 -7 -17 -16 -30 -21 -30 -5 0 -9 -4 -9 -10 0 -5
-13 -38 -30 -72 -16 -34 -30 -67 -30 -75 0 -7 -5 -13 -12 -13 -6 0 -8 -3 -5
-7 4 -3 2 -12 -4 -20 -6 -7 -8 -13 -5 -13 4 0 2 -9 -4 -21 -6 -11 -13 -28 -15
-37 -1 -9 -8 -37 -15 -62 -15 -54 -19 -74 -25 -120 -3 -19 -7 -48 -10 -65 -24
-155 -24 -589 0 -800 1 -16 6 -61 10 -100 10 -108 14 -148 19 -170 6 -29 25
-75 30 -75 3 0 1 12 -5 28 -5 15 -10 43 -12 62 -2 19 -6 40 -9 45 -6 11 -2
176 6 239 6 42 13 89 20 121 2 11 7 40 12 65 4 25 8 47 9 50 1 3 5 23 10 45
13 56 12 55 15 58 1 1 3 11 5 22 5 29 68 219 75 225 3 3 6 10 7 15 5 28 84
185 93 185 10 0 9 -34 -6 -100 -23 -109 -22 -393 1 -635 3 -27 7 -72 9 -100 2
-27 6 -61 10 -75 3 -14 8 -45 11 -70 3 -25 7 -57 10 -71 3 -14 6 -43 9 -65 2
-21 6 -50 9 -64 4 -14 9 -38 11 -55 7 -41 14 -81 26 -135 5 -25 12 -58 14 -75
2 -16 5 -30 6 -30 2 0 6 -21 14 -69 4 -21 8 -48 11 -60 10 -45 17 -82 20 -116
2 -19 4 -35 5 -35 5 0 16 -75 26 -170 12 -111 8 -206 -10 -240 -9 -16 -16 -37
-16 -45 0 -28 19 11 41 85 11 39 23 77 26 85 3 8 8 24 10 35 8 38 11 50 13 50
1 0 3 14 5 30 2 17 7 41 11 55 4 14 8 32 9 40 15 110 23 176 24 203 2 35 23
16 36 -33 1 -3 5 -12 8 -20 10 -22 57 -150 70 -187 5 -18 14 -33 19 -33 5 0 8
-6 7 -12 -2 -7 18 -58 44 -112 26 -54 47 -103 47 -107 0 -5 4 -9 10 -9 5 0 10
-3 9 -7 -2 -16 14 -53 22 -53 5 0 8 -3 7 -7 -3 -10 43 -106 55 -114 5 -3 8 -9
6 -13 -1 -4 22 -57 51 -117 28 -60 53 -115 54 -122 1 -7 7 -21 13 -32 14 -27
61 -164 67 -195 2 -14 9 -38 16 -55 6 -16 11 -31 10 -33 -1 -1 1 -26 4 -55 16
-140 16 -138 -7 -147 -42 -16 -62 -23 -80 -27 -31 -5 -120 -45 -162 -72 -22
-14 -43 -24 -47 -23 -5 1 -8 -3 -8 -8 0 -6 -6 -10 -13 -10 -7 0 -23 -9 -35
-20 -12 -11 -25 -20 -29 -20 -5 0 -16 -7 -26 -15 -9 -8 -20 -15 -23 -15 -4 0
-17 -11 -30 -25 -13 -14 -28 -25 -33 -25 -5 0 -17 -10 -26 -22 -8 -13 -19 -23
-23 -23 -19 1 -192 -174 -192 -194 0 -4 -9 -16 -20 -26 -11 -10 -17 -22 -14
-26 3 -5 1 -9 -5 -9 -11 0 -84 -145 -84 -167 0 -7 -5 -13 -10 -13 -6 0 -8 -3
-4 -6 3 -3 2 -17 -4 -31 -36 -96 -43 -398 -9 -463 16 -32 0 -171 -27 -222 -7
-16 -11 -28 -8 -28 4 0 -1 -7 -9 -16 -9 -8 -16 -22 -16 -30 0 -8 -5 -14 -11
-14 -5 0 -15 -13 -20 -30 -6 -16 -15 -27 -20 -24 -5 3 -9 0 -9 -6 0 -12 -31
-58 -70 -103 -14 -16 -25 -32 -25 -36 0 -7 -16 -28 -53 -67 -12 -14 -22 -31
-22 -38 0 -8 -7 -17 -16 -20 -8 -3 -13 -10 -10 -15 4 -5 3 -11 -2 -13 -8 -3
-82 -113 -82 -122 0 -4 -11 -24 -25 -46 -14 -22 -22 -40 -18 -40 5 0 3 -4 -2
-8 -10 -7 -48 -92 -60 -134 -2 -5 -3 -9 -5 -10 -1 -2 -3 -10 -5 -18 -2 -8 -9
-33 -15 -55 -18 -70 -25 -127 -25 -225 0 -111 5 -156 22 -189 6 -14 10 -28 7
-33 -3 -4 -1 -8 5 -8 5 0 12 -14 16 -30 4 -17 11 -30 16 -30 5 0 8 -3 7 -7 -3
-11 35 -73 44 -73 4 0 8 -5 8 -12 0 -17 117 -126 180 -167 30 -19 57 -36 59
-38 2 -1 -2 -9 -9 -18 -7 -8 -9 -15 -4 -15 5 0 4 -4 -2 -8 -13 -9 -74 -109
-74 -122 0 -6 -4 -10 -8 -10 -4 0 -8 -10 -9 -21 -1 -12 -10 -30 -19 -40 -9
-11 -14 -19 -11 -19 4 0 -2 -20 -13 -44 -10 -24 -16 -47 -13 -50 4 -3 1 -6 -6
-6 -7 0 -9 -4 -6 -10 3 -5 2 -10 -3 -10 -5 0 -9 -6 -10 -12 -1 -15 -7 -37 -15
-60 -4 -10 -10 -26 -14 -35 -3 -10 -7 -22 -8 -28 -1 -5 -3 -13 -5 -17 -1 -5
-4 -12 -5 -18 -1 -5 -3 -11 -5 -12 -1 -2 -3 -10 -5 -18 -2 -8 -13 -53 -25
-100 -12 -47 -23 -94 -26 -105 -4 -23 -13 -63 -19 -85 -2 -8 -4 -15 -5 -15 -1
0 -3 -11 -5 -25 -2 -14 -6 -43 -10 -65 -3 -22 -8 -51 -10 -65 -5 -30 -11 -105
-25 -295 -13 -167 -14 -170 -54 -215 -43 -49 -95 -132 -107 -172 -5 -18 -12
-57 -15 -85 l-6 -53 3657 0 3657 0 -6 33 c-6 32 -51 437 -61 552 -16 173 -25
251 -41 385 -2 19 -6 58 -9 86 -2 28 -6 64 -9 80 -5 25 -10 70 -21 164 -2 14
-6 45 -9 70 -3 25 -8 65 -11 90 -3 25 -8 59 -11 75 -3 17 -6 46 -8 65 -2 19
-7 46 -10 60 -3 14 -8 43 -11 65 -4 36 -9 67 -19 130 -2 11 -9 43 -16 70 -6
28 -14 61 -17 75 -9 43 -11 55 -13 58 -2 1 -3 5 -4 10 -5 23 -30 88 -36 97 -5
6 -8 13 -8 18 -1 25 -15 67 -28 78 -8 6 -14 20 -14 30 0 11 -4 19 -9 19 -5 0
-12 11 -15 25 -4 14 -11 25 -17 25 -6 0 -8 4 -5 8 3 5 -13 27 -35 50 -21 23
-39 44 -39 47 0 2 -20 25 -44 50 -24 25 -42 45 -40 45 7 0 -109 104 -141 127
-41 29 -245 135 -245 128 0 -4 -7 1 -16 9 -8 9 -20 14 -25 11 -12 -8 -12 -7
15 62 13 34 21 64 18 67 -3 3 1 6 8 6 7 0 10 3 7 6 -3 4 -2 14 3 24 9 16 14
39 26 109 3 18 8 43 10 55 6 29 6 153 0 196 -14 94 -86 257 -124 280 -9 5 -14
10 -9 10 10 0 -44 60 -55 60 -5 0 -19 11 -32 25 -13 13 -26 22 -29 18 -4 -3
-7 -1 -7 5 0 9 -177 102 -195 102 -2 0 -16 5 -32 12 -15 6 -34 13 -40 15 -7 1
-19 5 -25 6 -7 2 -20 7 -28 10 -39 15 -167 59 -180 62 -8 2 -35 8 -60 15 -25
7 -50 13 -55 14 -6 1 -29 12 -50 25 -22 13 -42 22 -44 21 -2 -1 -7 2 -10 7 -9
13 -81 56 -81 48 0 -3 -6 -1 -12 5 -27 23 -148 98 -148 92 0 -4 -5 1 -11 11
-5 9 -17 17 -24 17 -8 0 -15 5 -15 11 0 5 -4 7 -10 4 -5 -3 -10 -2 -10 2 0 5
-14 14 -31 20 l-31 12 6 92 c4 51 11 98 17 105 6 8 22 11 37 8 78 -15 169 -7
252 22 8 3 16 5 17 5 2 -1 15 9 29 22 29 25 56 71 47 81 -4 3 -2 6 4 6 6 0 16
21 23 48 7 26 16 52 19 57 3 6 6 15 7 20 7 43 106 350 115 355 6 4 10 9 9 11
-4 11 25 99 33 99 4 0 5 5 2 10 -3 6 -2 10 3 10 5 0 9 7 10 15 1 8 3 22 4 30
1 8 6 15 11 15 6 0 8 3 4 6 -3 4 0 19 9 35 8 16 15 32 15 36 1 8 15 48 26 73
3 8 7 18 8 23 2 4 4 9 5 12 1 3 3 8 5 13 1 4 7 19 13 34 16 38 65 201 65 216
0 6 3 12 7 12 3 0 6 10 7 23 1 21 4 35 24 125 5 23 12 59 15 80 3 20 8 40 10
44 2 4 7 31 9 61 3 30 8 65 10 77 3 13 7 60 11 104 6 75 10 104 14 116 1 3 2
8 1 13 0 4 3 7 7 7 7 0 53 89 58 110 0 3 6 17 12 31 8 21 31 93 37 119 19 82
26 140 28 218 1 70 19 80 27 16 12 -85 -3 -252 -25 -297 -4 -6 1 -3 9 7 9 11
16 26 16 33 0 7 4 13 10 13 5 0 9 3 8 8 -1 7 5 26 22 67 5 11 16 45 25 75 9
30 19 62 22 70 8 20 10 29 17 70 4 19 9 42 12 51 24 80 23 365 -1 510 -3 19
-8 50 -11 69 -3 19 -12 68 -21 108 -8 40 -12 76 -9 79 4 4 23 -11 44 -32 20
-21 30 -35 22 -30 -35 19 102 -102 175 -156 44 -33 85 -63 90 -67 24 -17 115
-63 115 -57 0 12 -27 34 -34 28 -3 -4 -6 -1 -6 5 0 7 -7 12 -16 12 -8 0 -13 4
-9 9 3 5 -3 12 -12 15 -10 3 -23 14 -28 25 -6 10 -33 52 -61 92 -28 41 -66
103 -85 139 -19 36 -38 68 -44 72 -5 4 -7 8 -2 8 4 0 0 15 -10 33 -9 17 -18
34 -18 37 -1 3 -9 23 -19 45 -10 22 -27 63 -38 90 -11 28 -25 61 -31 75 -5 14
-11 30 -13 35 -1 6 -8 24 -15 40 -6 17 -13 35 -15 40 -1 6 -9 26 -18 46 -8 20
-12 39 -9 43 4 3 2 6 -4 6 -6 0 -14 15 -18 33 -4 17 -9 34 -10 37 -1 3 -7 19
-14 35 -12 32 -17 46 -20 57 -1 4 -18 47 -37 95 -19 48 -34 94 -34 100 0 7 -4
13 -10 13 -5 0 -10 7 -10 16 0 35 -128 261 -177 312 -33 34 5 42 41 10 11 -10
27 -18 36 -18 9 0 20 -3 24 -7 4 -5 11 -8 14 -9 4 0 21 -6 37 -13 17 -6 41
-16 55 -21 28 -12 59 -19 110 -27 19 -3 40 -9 45 -13 10 -8 301 -5 425 4 36 3
70 5 76 5 6 1 11 7 11 15 0 10 -6 12 -21 6 -28 -10 -94 -6 -142 11 -21 7 -41
13 -44 14 -15 2 -107 40 -117 48 -7 5 -13 6 -13 2 0 -5 -9 0 -21 11 -12 10
-23 18 -25 16 -7 -4 -109 50 -112 59 -2 5 -8 7 -13 3 -5 -3 -9 0 -9 5 0 6 -7
11 -15 11 -9 0 -18 7 -21 15 -4 8 -10 13 -14 10 -4 -2 -15 4 -25 15 -10 11
-24 20 -32 20 -7 0 -13 5 -13 10 0 6 -8 14 -17 17 -10 4 -29 18 -42 32 -13 14
-20 19 -16 11 4 -9 1 -9 -8 3 -8 9 -19 17 -26 17 -6 0 -10 4 -8 9 1 5 -2 10
-8 12 -11 4 -45 32 -77 67 -12 12 -28 22 -35 22 -8 0 -11 5 -8 10 3 6 2 10 -4
10 -5 0 -28 18 -50 40 -23 23 -41 39 -41 36 0 -2 -20 16 -45 40 -24 24 -49 44
-55 44 -6 0 -8 5 -5 10 3 6 2 10 -3 10 -5 0 -20 10 -34 23 -14 12 -42 36 -64
52 -21 17 -46 38 -56 48 -10 9 -22 17 -28 17 -5 0 -10 5 -10 12 0 6 -3 8 -7 5
-3 -4 -17 5 -30 19 -12 14 -23 22 -23 18 0 -3 -7 -1 -15 6 -26 21 -17 32 23
25 20 -3 55 -9 77 -13 54 -9 293 -7 330 2 17 4 39 9 50 10 11 2 27 6 35 9 77
31 125 45 132 41 4 -3 8 -1 8 3 0 5 23 16 50 26 28 10 50 22 50 28 0 6 5 7 10
4 6 -3 10 -1 10 5 0 6 4 9 8 6 5 -3 21 4 38 15 l29 20 -35 -6 c-147 -25 -327
-22 -485 9 -109 21 -117 23 -146 34 -15 6 -29 8 -32 5 -3 -3 -12 -1 -19 3 -7
5 -16 9 -20 10 -5 1 -10 3 -13 4 -3 1 -8 3 -12 5 -5 1 -15 4 -23 8 -18 7 -123
41 -130 42 -8 1 -124 45 -145 55 -11 5 -36 13 -55 19 -19 5 -73 23 -120 39
-286 102 -374 118 -790 140 l-135 7 50 17 c28 8 86 26 130 38 135 37 296 104
307 127 1 4 20 16 42 26 21 10 36 20 34 23 -3 2 -25 -5 -50 -16 -25 -11 -90
-32 -144 -46 -92 -25 -113 -27 -304 -26 -113 0 -257 6 -320 12 -206 20 -352
23 -540 10 -237 -15 -421 -51 -665 -131 -233 -75 -333 -116 -430 -174 -41 -25
-82 -48 -92 -52 -26 -10 -230 -218 -286 -292 -44 -57 -62 -85 -95 -147 -18
-33 -63 -149 -62 -158 1 -5 -3 -12 -8 -15 -5 -3 -22 -28 -37 -56 -35 -64 -44
-73 -54 -57 -12 19 -4 158 14 257 4 22 9 47 10 56 2 8 11 46 20 83 9 37 18 72
19 79 1 7 5 17 8 23 4 6 9 22 12 37 8 44 73 196 106 248 49 75 259 271 376
349 56 37 141 87 188 111 47 23 86 46 86 51 0 16 -56 7 -140 -23z m-348 -5176
c9 -16 30 -44 47 -63 17 -19 34 -39 39 -45 5 -5 50 -48 102 -95 163 -149 231
-215 241 -233 9 -16 6 -17 -38 -11 -58 7 -286 7 -328 0 -16 -3 -61 -8 -100
-11 -38 -4 -74 -9 -79 -12 -11 -8 -3 29 21 92 43 111 66 237 65 353 -1 59 6
64 30 25z m661 -412 c37 -30 67 -60 67 -66 0 -8 -18 -8 -64 -2 l-64 10 -26 61
c-14 34 -26 65 -26 69 0 13 42 -13 113 -72z"/>
<path d="M7855 9969 c-4 -6 -5 -12 -2 -15 2 -3 7 2 10 11 7 17 1 20 -8 4z"/>
<path d="M8366 8912 c-3 -5 1 -9 9 -9 8 0 12 4 9 9 -3 4 -7 8 -9 8 -2 0 -6 -4
-9 -8z"/>
<path d="M7726 6553 c-6 -14 -5 -15 5 -6 7 7 10 15 7 18 -3 3 -9 -2 -12 -12z"/>
</g>
</svg>
